# xmcd
#
# Track frame offsets:
#	150
#	13190
#	25220
#	37919
#	57413
#	69096
#	83975
#	94299
#	106528
#	116725
#	125063
#
# Disc length: 1831 seconds
#
# Revision: 0
# Processed by: cddbd v1.5.2PL0 Copyright (c) Steve Scherf et al.
# Submitted via: audiograbber 1.83.01
#
DISCID=8a07250b
DTITLE=Shawn Barker - Ride This Train Again: The Music of Johnny Cash
DYEAR=2008
DGENRE=Country
TTITLE0=Walk the Line
TTITLE1=Folsom Prison Blues
TTITLE2=Give My Love to Rose
TTITLE3=Orange Blossom Special
TTITLE4=Big River
TTITLE5=Tennessee Flat Top Box
TTITLE6=Frankie's Man Johnny
TTITLE7=Home of the Blues
TTITLE8=Luther Played the Boogie
TTITLE9=Five Feet High and Rising
TTITLE10=Ring of Fire
EXTD=
EXTT0=
EXTT1=
EXTT2=
EXTT3=
EXTT4=
EXTT5=
EXTT6=
EXTT7=
EXTT8=
EXTT9=
EXTT10=
PLAYORDER=
